# Made in Blockbench 3.5.4
mtllib materials.mtl
o cube
v -0.028672933767762476 1.0664996480340743 -0.19978770267250245
v -0.01864605894248994 1.0278342827732836 -0.1517179480393866
v -0.06605234163536977 0.6253811500057802 -0.5468085962289698
v -0.05602546681009718 0.5867157847449895 -0.498738841595854
v 0.7199597558166662 1.0637322261741984 -0.27690895435992086
v 0.7099328809913936 1.102397591434989 -0.3249787089930367
v 0.6825803479490589 0.6226137281459045 -0.6239298479163883
v 0.6725534731237863 0.661279093406695 -0.6719996025495041
vt 0.125 0.75
vt 0.0625 0.75
vt 0.125 0.6875
vt 0.0625 0.75
vt 0.0625 0.6875
vt 0.125 0.6875
vt 0.125 0.75
vt 0.0625 0.75
vt 0.125 0.6875
vt 0.0625 0.75
vt 0.0625 0.6875
vt 0.125 0.6875
vt 0.125 0.75
vt 0.0625 0.75
vt 0.125 0.6875
vt 0.0625 0.75
vt 0.0625 0.6875
vt 0.125 0.6875
vt 0.125 0.75
vt 0.0625 0.75
vt 0.125 0.6875
vt 0.0625 0.75
vt 0.0625 0.6875
vt 0.125 0.6875
vt 0.125 1
vt 0.125 0.9375
vt 0.1875 1
vt 0.125 0.9375
vt 0.1875 0.9375
vt 0.1875 1
vt 0.125 0.75
vt 0.0625 0.75
vt 0.125 0.6875
vt 0.0625 0.75
vt 0.0625 0.6875
vt 0.125 0.6875
vn -0.9848077530122079 -0.047863924534553265 0.16692134176071236
vn -0.9848077530122079 -0.047863924534553265 0.16692134176071236
vn -0.9848077530122079 -0.047863924534553265 0.16692134176071236
vn -0.9848077530122079 -0.047863924534553265 0.16692134176071236
vn -0.9848077530122079 -0.047863924534553265 0.16692134176071236
vn -0.9848077530122079 -0.047863924534553265 0.16692134176071236
vn 0.9848077530122079 0.047863924534553265 -0.16692134176071236
vn 0.9848077530122079 0.047863924534553265 -0.16692134176071236
vn 0.9848077530122079 0.047863924534553265 -0.16692134176071236
vn 0.9848077530122079 0.047863924534553265 -0.16692134176071236
vn 0.9848077530122079 0.047863924534553265 -0.16692134176071236
vn 0.9848077530122079 0.047863924534553265 -0.16692134176071236
vn 0.06645228065352399 0.7842106631614116 0.6169260329892755
vn 0.06645228065352399 0.7842106631614116 0.6169260329892755
vn 0.06645228065352399 0.7842106631614116 0.6169260329892755
vn 0.06645228065352399 0.7842106631614116 0.6169260329892755
vn 0.06645228065352399 0.7842106631614116 0.6169260329892755
vn 0.06645228065352399 0.7842106631614116 0.6169260329892755
vn -0.06645228065352399 -0.7842106631614116 -0.6169260329892755
vn -0.06645228065352399 -0.7842106631614116 -0.6169260329892755
vn -0.06645228065352399 -0.7842106631614116 -0.6169260329892755
vn -0.06645228065352399 -0.7842106631614116 -0.6169260329892755
vn -0.06645228065352399 -0.7842106631614116 -0.6169260329892755
vn -0.06645228065352399 -0.7842106631614116 -0.6169260329892755
vn -0.16042999720436082 0.6186458441726493 -0.769116074129854
vn -0.16042999720436082 0.6186458441726493 -0.769116074129854
vn -0.16042999720436082 0.6186458441726493 -0.769116074129854
vn -0.16042999720436082 0.6186458441726493 -0.769116074129854
vn -0.16042999720436082 0.6186458441726493 -0.769116074129854
vn -0.16042999720436082 0.6186458441726493 -0.769116074129854
vn 0.16042999720436082 -0.6186458441726493 0.769116074129854
vn 0.16042999720436082 -0.6186458441726493 0.769116074129854
vn 0.16042999720436082 -0.6186458441726493 0.769116074129854
vn 0.16042999720436082 -0.6186458441726493 0.769116074129854
vn 0.16042999720436082 -0.6186458441726493 0.769116074129854
vn 0.16042999720436082 -0.6186458441726493 0.769116074129854
usemtl 1
f 1/1/1 3/2/2 2/3/3
f 3/4/4 4/5/5 2/6/6
usemtl 1
f 5/7/7 7/8/8 6/9/9
f 7/10/10 8/11/11 6/12/12
usemtl 1
f 5/13/13 6/14/14 2/15/15
f 6/16/16 1/17/17 2/18/18
usemtl 1
f 8/19/19 7/20/20 3/21/21
f 7/22/22 4/23/23 3/24/24
usemtl 2
f 6/25/25 8/26/26 1/27/27
f 8/28/28 3/29/29 1/30/30
usemtl 1
f 2/31/31 4/32/32 5/33/33
f 4/34/34 7/35/35 5/36/36
o cube
v 0.038751158079927794 0.9818126116091049 -0.20070840896126085
v 0.04877803290520033 0.9431472463483144 -0.15263865432814497
v 0.0055250177531658284 0.5897072800283991 -0.5091714254558986
v 0.015551892578438364 0.5510419147676087 -0.46110167082278264
v 0.6642828785378304 0.9730621991824102 -0.25696449292859014
v 0.6542560037125579 1.0117275644432007 -0.30503424756170605
v 0.6310567382110684 0.5809568676017043 -0.565427509423228
v 0.6210298633857959 0.619622232862495 -0.6134972640563437
vt 0.125 0.75
vt 0.0625 0.75
vt 0.125 0.6875
vt 0.0625 0.75
vt 0.0625 0.6875
vt 0.125 0.6875
vt 0.125 0.75
vt 0.0625 0.75
vt 0.125 0.6875
vt 0.0625 0.75
vt 0.0625 0.6875
vt 0.125 0.6875
vt 0.125 0.75
vt 0.0625 0.75
vt 0.125 0.6875
vt 0.0625 0.75
vt 0.0625 0.6875
vt 0.125 0.6875
vt 0.125 0.75
vt 0.0625 0.75
vt 0.125 0.6875
vt 0.0625 0.75
vt 0.0625 0.6875
vt 0.125 0.6875
vt 0.125 0.75
vt 0.0625 0.75
vt 0.125 0.6875
vt 0.0625 0.75
vt 0.0625 0.6875
vt 0.125 0.6875
vt 0.125 0.75
vt 0.0625 0.75
vt 0.125 0.6875
vt 0.0625 0.75
vt 0.0625 0.6875
vt 0.125 0.6875
vn -0.9848077530122079 -0.047863924534553265 0.16692134176071236
vn -0.9848077530122079 -0.047863924534553265 0.16692134176071236
vn -0.9848077530122079 -0.047863924534553265 0.16692134176071236
vn -0.9848077530122079 -0.047863924534553265 0.16692134176071236
vn -0.9848077530122079 -0.047863924534553265 0.16692134176071236
vn -0.9848077530122079 -0.047863924534553265 0.16692134176071236
vn 0.9848077530122079 0.047863924534553265 -0.16692134176071236
vn 0.9848077530122079 0.047863924534553265 -0.16692134176071236
vn 0.9848077530122079 0.047863924534553265 -0.16692134176071236
vn 0.9848077530122079 0.047863924534553265 -0.16692134176071236
vn 0.9848077530122079 0.047863924534553265 -0.16692134176071236
vn 0.9848077530122079 0.047863924534553265 -0.16692134176071236
vn 0.06645228065352399 0.7842106631614116 0.6169260329892755
vn 0.06645228065352399 0.7842106631614116 0.6169260329892755
vn 0.06645228065352399 0.7842106631614116 0.6169260329892755
vn 0.06645228065352399 0.7842106631614116 0.6169260329892755
vn 0.06645228065352399 0.7842106631614116 0.6169260329892755
vn 0.06645228065352399 0.7842106631614116 0.6169260329892755
vn -0.06645228065352399 -0.7842106631614116 -0.6169260329892755
vn -0.06645228065352399 -0.7842106631614116 -0.6169260329892755
vn -0.06645228065352399 -0.7842106631614116 -0.6169260329892755
vn -0.06645228065352399 -0.7842106631614116 -0.6169260329892755
vn -0.06645228065352399 -0.7842106631614116 -0.6169260329892755
vn -0.06645228065352399 -0.7842106631614116 -0.6169260329892755
vn -0.16042999720436082 0.6186458441726493 -0.769116074129854
vn -0.16042999720436082 0.6186458441726493 -0.769116074129854
vn -0.16042999720436082 0.6186458441726493 -0.769116074129854
vn -0.16042999720436082 0.6186458441726493 -0.769116074129854
vn -0.16042999720436082 0.6186458441726493 -0.769116074129854
vn -0.16042999720436082 0.6186458441726493 -0.769116074129854
vn 0.16042999720436082 -0.6186458441726493 0.769116074129854
vn 0.16042999720436082 -0.6186458441726493 0.769116074129854
vn 0.16042999720436082 -0.6186458441726493 0.769116074129854
vn 0.16042999720436082 -0.6186458441726493 0.769116074129854
vn 0.16042999720436082 -0.6186458441726493 0.769116074129854
vn 0.16042999720436082 -0.6186458441726493 0.769116074129854
usemtl 1
f 9/37/37 11/38/38 10/39/39
f 11/40/40 12/41/41 10/42/42
usemtl 1
f 13/43/43 15/44/44 14/45/45
f 15/46/46 16/47/47 14/48/48
usemtl 1
f 13/49/49 14/50/50 10/51/51
f 14/52/52 9/53/53 10/54/54
usemtl 1
f 16/55/55 15/56/56 11/57/57
f 15/58/58 12/59/59 11/60/60
usemtl 1
f 14/61/61 16/62/62 9/63/63
f 16/64/64 11/65/65 9/66/66
usemtl 1
f 10/67/67 12/68/68 13/69/69
f 12/70/70 15/71/71 13/72/72
o cube
v 0.14693650189347846 0.7762501057047506 -0.37023294441838006
v 0.15778951299766164 0.7592844928904778 -0.31106682124127255
v 0.14693650189347846 0.47585582572402596 -0.4563696181111923
v 0.15778951299766164 0.4588902129097532 -0.3972034949340848
v 0.5270924203772397 0.7772334645909353 -0.3736623244015397
v 0.5162394092730566 0.7941990774052081 -0.4328284475786472
v 0.5270924203772397 0.4768391846102107 -0.4597989980943519
v 0.5162394092730566 0.49380479742448347 -0.5189651212714594
vt 0.125 0.75
vt 0.0625 0.75
vt 0.125 0.6875
vt 0.0625 0.75
vt 0.0625 0.6875
vt 0.125 0.6875
vt 0.125 0.75
vt 0.0625 0.75
vt 0.125 0.6875
vt 0.0625 0.75
vt 0.0625 0.6875
vt 0.125 0.6875
vt 0.125 0.75
vt 0.0625 0.75
vt 0.125 0.6875
vt 0.0625 0.75
vt 0.0625 0.6875
vt 0.125 0.6875
vt 0.125 0.75
vt 0.0625 0.75
vt 0.125 0.6875
vt 0.0625 0.75
vt 0.0625 0.6875
vt 0.125 0.6875
vt 0.125 0.75
vt 0.0625 0.75
vt 0.125 0.6875
vt 0.0625 0.75
vt 0.0625 0.6875
vt 0.125 0.6875
vt 0.125 0.75
vt 0.0625 0.75
vt 0.125 0.6875
vt 0.0625 0.75
vt 0.0625 0.6875
vt 0.125 0.6875
vn -0.9848077530122078 -0.047863924534553244 0.1669213417607123
vn -0.9848077530122078 -0.047863924534553244 0.1669213417607123
vn -0.9848077530122078 -0.047863924534553244 0.1669213417607123
vn -0.9848077530122078 -0.047863924534553244 0.1669213417607123
vn -0.9848077530122078 -0.047863924534553244 0.1669213417607123
vn -0.9848077530122078 -0.047863924534553244 0.1669213417607123
vn 0.9848077530122078 0.047863924534553244 -0.1669213417607123
vn 0.9848077530122078 0.047863924534553244 -0.1669213417607123
vn 0.9848077530122078 0.047863924534553244 -0.1669213417607123
vn 0.9848077530122078 0.047863924534553244 -0.1669213417607123
vn 0.9848077530122078 0.047863924534553244 -0.1669213417607123
vn 0.9848077530122078 0.047863924534553244 -0.1669213417607123
vn 1.3877787807814454e-17 0.9612616959383188 0.2756373558169991
vn 1.3877787807814454e-17 0.9612616959383188 0.2756373558169991
vn 1.3877787807814454e-17 0.9612616959383188 0.2756373558169991
vn 1.3877787807814454e-17 0.9612616959383188 0.2756373558169991
vn 1.3877787807814454e-17 0.9612616959383188 0.2756373558169991
vn 1.3877787807814454e-17 0.9612616959383188 0.2756373558169991
vn -1.3877787807814454e-17 -0.9612616959383188 -0.2756373558169991
vn -1.3877787807814454e-17 -0.9612616959383188 -0.2756373558169991
vn -1.3877787807814454e-17 -0.9612616959383188 -0.2756373558169991
vn -1.3877787807814454e-17 -0.9612616959383188 -0.2756373558169991
vn -1.3877787807814454e-17 -0.9612616959383188 -0.2756373558169991
vn -1.3877787807814454e-17 -0.9612616959383188 -0.2756373558169991
vn -0.17364817766693066 0.2714498050283654 -0.94665797083372
vn -0.17364817766693066 0.2714498050283654 -0.94665797083372
vn -0.17364817766693066 0.2714498050283654 -0.94665797083372
vn -0.17364817766693066 0.2714498050283654 -0.94665797083372
vn -0.17364817766693066 0.2714498050283654 -0.94665797083372
vn -0.17364817766693066 0.2714498050283654 -0.94665797083372
vn 0.17364817766693066 -0.2714498050283654 0.94665797083372
vn 0.17364817766693066 -0.2714498050283654 0.94665797083372
vn 0.17364817766693066 -0.2714498050283654 0.94665797083372
vn 0.17364817766693066 -0.2714498050283654 0.94665797083372
vn 0.17364817766693066 -0.2714498050283654 0.94665797083372
vn 0.17364817766693066 -0.2714498050283654 0.94665797083372
usemtl 1
f 17/73/73 19/74/74 18/75/75
f 19/76/76 20/77/77 18/78/78
usemtl 1
f 21/79/79 23/80/80 22/81/81
f 23/82/82 24/83/83 22/84/84
usemtl 1
f 21/85/85 22/86/86 18/87/87
f 22/88/88 17/89/89 18/90/90
usemtl 1
f 24/91/91 23/92/92 19/93/93
f 23/94/94 20/95/95 19/96/96
usemtl 1
f 22/97/97 24/98/98 17/99/99
f 24/100/100 19/101/101 17/102/102
usemtl 1
f 18/103/103 20/104/104 21/105/105
f 20/106/106 23/107/107 21/108/108
o cube
v 0.09263388014289387 0.5464152698683183 -0.47569243786042714
v 0.11976640790335175 0.5040012378326363 -0.3277771299176584
v 0.09263388014289387 0.4863364138721734 -0.49291977259898956
v 0.11976640790335175 0.44392238183649135 -0.3450044646562208
v 0.5813950421278243 0.526437452458208 -0.40602150886799226
v 0.5542625143673664 0.5688514844938902 -0.553936816810761
v 0.5813950421278243 0.4663585964620631 -0.4232488436065547
v 0.5542625143673664 0.5087726284977453 -0.5711641515493234
vt 0 1
vt 0 0.9375
vt 0.15625 1
vt 0 0.9375
vt 0.15625 0.9375
vt 0.15625 1
vt 0 1
vt 0 0.9375
vt 0.15625 1
vt 0 0.9375
vt 0.15625 0.9375
vt 0.15625 1
vt 0 1
vt 0 0.84375
vt 0.46875 1
vt 0 0.84375
vt 0.46875 0.84375
vt 0.46875 1
vt 0 1
vt 0 0.84375
vt 0.46875 1
vt 0 0.84375
vt 0.46875 0.84375
vt 0.46875 1
vt 0 1
vt 0 0.9375
vt 0.46875 1
vt 0 0.9375
vt 0.46875 0.9375
vt 0.46875 1
vt 0 1
vt 0 0.9375
vt 0.46875 1
vt 0 0.9375
vt 0.46875 0.9375
vt 0.46875 1
vn -0.9848077530122078 -0.047863924534553244 0.1669213417607123
vn -0.9848077530122078 -0.047863924534553244 0.1669213417607123
vn -0.9848077530122078 -0.047863924534553244 0.1669213417607123
vn -0.9848077530122078 -0.047863924534553244 0.1669213417607123
vn -0.9848077530122078 -0.047863924534553244 0.1669213417607123
vn -0.9848077530122078 -0.047863924534553244 0.1669213417607123
vn 0.9848077530122078 0.047863924534553244 -0.1669213417607123
vn 0.9848077530122078 0.047863924534553244 -0.1669213417607123
vn 0.9848077530122078 0.047863924534553244 -0.1669213417607123
vn 0.9848077530122078 0.047863924534553244 -0.1669213417607123
vn 0.9848077530122078 0.047863924534553244 -0.1669213417607123
vn 0.9848077530122078 0.047863924534553244 -0.1669213417607123
vn 1.3877787807814454e-17 0.9612616959383188 0.2756373558169991
vn 1.3877787807814454e-17 0.9612616959383188 0.2756373558169991
vn 1.3877787807814454e-17 0.9612616959383188 0.2756373558169991
vn 1.3877787807814454e-17 0.9612616959383188 0.2756373558169991
vn 1.3877787807814454e-17 0.9612616959383188 0.2756373558169991
vn 1.3877787807814454e-17 0.9612616959383188 0.2756373558169991
vn -1.3877787807814454e-17 -0.9612616959383188 -0.2756373558169991
vn -1.3877787807814454e-17 -0.9612616959383188 -0.2756373558169991
vn -1.3877787807814454e-17 -0.9612616959383188 -0.2756373558169991
vn -1.3877787807814454e-17 -0.9612616959383188 -0.2756373558169991
vn -1.3877787807814454e-17 -0.9612616959383188 -0.2756373558169991
vn -1.3877787807814454e-17 -0.9612616959383188 -0.2756373558169991
vn -0.17364817766693066 0.2714498050283654 -0.94665797083372
vn -0.17364817766693066 0.2714498050283654 -0.94665797083372
vn -0.17364817766693066 0.2714498050283654 -0.94665797083372
vn -0.17364817766693066 0.2714498050283654 -0.94665797083372
vn -0.17364817766693066 0.2714498050283654 -0.94665797083372
vn -0.17364817766693066 0.2714498050283654 -0.94665797083372
vn 0.17364817766693066 -0.2714498050283654 0.94665797083372
vn 0.17364817766693066 -0.2714498050283654 0.94665797083372
vn 0.17364817766693066 -0.2714498050283654 0.94665797083372
vn 0.17364817766693066 -0.2714498050283654 0.94665797083372
vn 0.17364817766693066 -0.2714498050283654 0.94665797083372
vn 0.17364817766693066 -0.2714498050283654 0.94665797083372
usemtl none
f 25/109/109 27/110/110 26/111/111
f 27/112/112 28/113/113 26/114/114
usemtl none
f 29/115/115 31/116/116 30/117/117
f 31/118/118 32/119/119 30/120/120
usemtl none
f 29/121/121 30/122/122 26/123/123
f 30/124/124 25/125/125 26/126/126
usemtl none
f 32/127/127 31/128/128 27/129/129
f 31/130/130 28/131/131 27/132/132
usemtl none
f 30/133/133 32/134/134 25/135/135
f 32/136/136 27/137/137 25/138/138
usemtl none
f 26/139/139 28/140/140 29/141/141
f 28/142/142 31/143/143 29/144/144
